<svg version="1.1" viewBox="0.0 0.0 721.0 514.3333333333334" fill="none" stroke="none" stroke-linecap="square" stroke-miterlimit="10" xmlns:xlink="http://www.w3.org/1999/xlink" xmlns="http://www.w3.org/2000/svg"><clipPath id="p.0"><path d="m0 0l721.0 0l0 514.3333l-721.0 0l0 -514.3333z" clip-rule="nonzero"/></clipPath><g clip-path="url(#p.0)"><path fill="#000000" fill-opacity="0.0" d="m0 0l721.0 0l0 514.3333l-721.0 0z" fill-rule="evenodd"/><path fill="#cfe2f3" d="m12.086615 225.222l91.71653 0l0 85.60631l-91.71653 0z" fill-rule="evenodd"/><path stroke="#000000" stroke-width="1.0" stroke-linejoin="round" stroke-linecap="butt" d="m12.086615 225.222l91.71653 0l0 85.60631l-91.71653 0z" fill-rule="evenodd"/><path fill="#000000" d="m22.47724 265.14514l0 -13.359375l2.65625 0l3.15625 9.453125q0.4375 1.328125 0.640625 1.984375q0.234375 -0.734375 0.703125 -2.140625l3.203123 -9.296875l2.375 0l0 13.359375l-1.703125 0l0 -11.171875l-3.874998 11.171875l-1.59375 0l-3.859375 -11.375l0 11.375l-1.703125 0zm14.150175 0.234375l3.875 -13.8125l1.3125 0l-3.859375 13.8125l-1.328125 0zm6.573929 -0.234375l0 -13.359375l2.65625 0l3.15625 9.453125q0.4375 1.328125 0.640625 1.984375q0.234375 -0.734375 0.703125 -2.140625l3.203125 -9.296875l2.375 0l0 13.359375l-1.703125 0l0 -11.171875l-3.875 11.171875l-1.59375 0l-3.859375 -11.375l0 11.375l-1.703125 0zm14.150177 0.234375l3.875 -13.8125l1.3125 0l-3.859375 13.8125l-1.328125 0z" fill-rule="nonzero"/><path fill="#000000" d="m69.94108 256.4264q1.125 -1.421875 1.75 -1.875q0.859375 -0.625 1.828125 -0.625q1.125 0 2.109375 0.828125q0.984375 0.8125 0.984375 2.625q0 1.265625 -0.375 2.0q-0.359375 0.71875 -1.140625 1.15625q-0.765625 0.4375 -1.578125 0.4375q-0.96875 0 -1.828125 -0.609375q-0.625 -0.46875 -1.75 -1.875q-1.46875 1.828125 -3.109375 1.828125q-1.078125 0 -1.859375 -0.8125q-0.78125 -0.828125 -0.78125 -2.046875q0 -1.21875 0.78125 -2.046875q0.78125 -0.828125 1.859375 -0.828125q1.640625 0 3.109375 1.84375zm0.734375 1.015625q0.9375 1.453125 1.703125 1.984375q0.5 0.359375 1.109375 0.359375q0.828125 0 1.375 -0.59375q0.546875 -0.609375 0.546875 -1.703125q0 -1.140625 -0.5625 -1.734375q-0.5625 -0.609375 -1.390625 -0.609375q-0.53125 0 -1.0 0.296875q-0.625 0.421875 -1.78125 2.0zm-1.484375 0.015625q-0.859375 -1.078125 -1.375 -1.375q-0.515625 -0.3125 -0.984375 -0.3125q-0.625 0 -1.046875 0.4375q-0.40625 0.4375 -0.40625 1.21875q0 0.75 0.421875 1.21875q0.4375 0.453125 1.046875 0.453125q1.09375 0 2.34375 -1.640625z" fill-rule="nonzero"/><path fill="#cfe2f3" d="m169.17061 36.695538l505.98425 0l0 226.23622l-505.98425 0z" fill-rule="evenodd"/><path stroke="#000000" stroke-width="1.0" stroke-linejoin="round" stroke-linecap="butt" d="m169.17061 36.695538l505.98425 0l0 226.23622l-505.98425 0z" fill-rule="evenodd"/><path fill="#cfe2f3" d="m180.75984 121.2785l0 0c0 -7.880005 6.3880005 -14.268005 14.268005 -14.268005l174.77107 0c3.7841187 0 7.4132385 1.5032349 10.08902 4.179001c2.6757507 2.6757736 4.1789856 6.3048935 4.1789856 10.0890045l0 57.070297c0 7.8799896 -6.3880005 14.26799 -14.268005 14.26799l-174.77107 0l0 0c-7.880005 0 -14.268005 -6.3880005 -14.268005 -14.26799z" fill-rule="evenodd"/><path stroke="#000000" stroke-width="1.0" stroke-linejoin="round" stroke-linecap="butt" d="m180.75984 121.2785l0 0c0 -7.880005 6.3880005 -14.268005 14.268005 -14.268005l174.77107 0c3.7841187 0 7.4132385 1.5032349 10.08902 4.179001c2.6757507 2.6757736 4.1789856 6.3048935 4.1789856 10.0890045l0 57.070297c0 7.8799896 -6.3880005 14.26799 -14.268005 14.26799l-174.77107 0l0 0c-7.880005 0 -14.268005 -6.3880005 -14.268005 -14.26799z" fill-rule="evenodd"/><path fill="#b6d7a8" d="m213.53806 134.52231l13.763779 0l0 30.582672l-13.763779 0z" fill-rule="evenodd"/><path stroke="#000000" stroke-width="1.0" stroke-linejoin="round" stroke-linecap="butt" d="m213.53806 134.52231l13.763779 0l0 30.582672l-13.763779 0z" fill-rule="evenodd"/><path fill="#b6d7a8" d="m231.77428 134.52231l13.763779 0l0 30.582672l-13.763779 0z" fill-rule="evenodd"/><path stroke="#000000" stroke-width="1.0" stroke-linejoin="round" stroke-linecap="butt" d="m231.77428 134.52231l13.763779 0l0 30.582672l-13.763779 0z" fill-rule="evenodd"/><path fill="#b6d7a8" d="m250.0105 134.52231l13.763794 0l0 30.582672l-13.763794 0z" fill-rule="evenodd"/><path stroke="#000000" stroke-width="1.0" stroke-linejoin="round" stroke-linecap="butt" d="m250.0105 134.52231l13.763794 0l0 30.582672l-13.763794 0z" fill-rule="evenodd"/><path fill="#b6d7a8" d="m268.2467 134.52231l13.763794 0l0 30.582672l-13.763794 0z" fill-rule="evenodd"/><path stroke="#000000" stroke-width="1.0" stroke-linejoin="round" stroke-linecap="butt" d="m268.2467 134.52231l13.763794 0l0 30.582672l-13.763794 0z" fill-rule="evenodd"/><path fill="#000000" fill-opacity="0.0" d="m198.2546 134.52231l99.37007 0" fill-rule="evenodd"/><path stroke="#000000" stroke-width="1.0" stroke-linejoin="round" stroke-linecap="butt" d="m198.2546 134.52231l99.37007 0" fill-rule="evenodd"/><path fill="#000000" fill-opacity="0.0" d="m198.2546 165.10498l99.37007 0" fill-rule="evenodd"/><path stroke="#000000" stroke-width="1.0" stroke-linejoin="round" stroke-linecap="butt" d="m198.2546 165.10498l99.37007 0" fill-rule="evenodd"/><path fill="#ffd966" d="m315.1168 149.81364l0 0c0 -13.933228 11.2951355 -25.22834 25.228363 -25.22834l0 0c6.690979 0 13.10788 2.6579742 17.839111 7.3892136c4.7312317 4.7312317 7.389221 11.148163 7.389221 17.839127l0 0c0 13.933228 -11.295105 25.228348 -25.228333 25.228348l0 0c-13.933228 0 -25.228363 -11.29512 -25.228363 -25.228348z" fill-rule="evenodd"/><path stroke="#000000" stroke-width="1.0" stroke-linejoin="round" stroke-linecap="butt" d="m315.1168 149.81364l0 0c0 -13.933228 11.2951355 -25.22834 25.228363 -25.22834l0 0c6.690979 0 13.10788 2.6579742 17.839111 7.3892136c4.7312317 4.7312317 7.389221 11.148163 7.389221 17.839127l0 0c0 13.933228 -11.295105 25.228348 -25.228333 25.228348l0 0c-13.933228 0 -25.228363 -11.29512 -25.228363 -25.228348z" fill-rule="evenodd"/><path fill="#000000" fill-opacity="0.0" d="m245.61154 184.6693l73.60629 0l0 30.582672l-73.60629 0z" fill-rule="evenodd"/><path fill="#000000" d="m256.00217 211.5893l0 -13.359375l2.65625 0l3.15625 9.453125q0.4375 1.328125 0.640625 1.984375q0.234375 -0.734375 0.703125 -2.140625l3.203125 -9.296875l2.375 0l0 13.359375l-1.703125 0l0 -11.171875l-3.875 11.171875l-1.59375 0l-3.859375 -11.375l0 11.375l-1.703125 0zm14.150177 0.234375l3.875 -13.8125l1.3125 0l-3.859375 13.8125l-1.328125 0zm6.573944 -0.234375l0 -13.359375l2.65625 0l3.15625 9.453125q0.4375 1.328125 0.640625 1.984375q0.234375 -0.734375 0.703125 -2.140625l3.203125 -9.296875l2.375 0l0 13.359375l-1.703125 0l0 -11.171875l-3.875 11.171875l-1.59375 0l-3.859375 -11.375l0 11.375l-1.703125 0zm14.150177 0.234375l3.875 -13.8125l1.3125 0l-3.859375 13.8125l-1.328125 0zm12.136414 -0.234375l-1.640625 0l0 -10.453125q-0.59375 0.5625 -1.5625 1.140625q-0.953125 0.5625 -1.71875 0.84375l0 -1.59375q1.375 -0.640625 2.40625 -1.5625q1.03125 -0.921875 1.453125 -1.78125l1.0625 0l0 13.40625z" fill-rule="nonzero"/><path fill="#cfe2f3" d="m444.32022 86.63318l0 0c0 -17.447327 14.143829 -31.591183 31.591187 -31.591183l140.12473 0c8.378479 0 16.413818 3.3283463 22.338318 9.252842c5.9244995 5.9244995 9.252869 13.959839 9.252869 22.33834l0 126.36095c0 17.447327 -14.14386 31.591171 -31.591187 31.591171l-140.12473 0c-17.447357 0 -31.591187 -14.143845 -31.591187 -31.591171z" fill-rule="evenodd"/><path stroke="#000000" stroke-width="1.0" stroke-linejoin="round" stroke-linecap="butt" d="m444.32022 86.63318l0 0c0 -17.447327 14.143829 -31.591183 31.591187 -31.591183l140.12473 0c8.378479 0 16.413818 3.3283463 22.338318 9.252842c5.9244995 5.9244995 9.252869 13.959839 9.252869 22.33834l0 126.36095c0 17.447327 -14.14386 31.591171 -31.591187 31.591171l-140.12473 0c-17.447357 0 -31.591187 -14.143845 -31.591187 -31.591171z" fill-rule="evenodd"/><path fill="#b6d7a8" d="m480.23358 134.52231l13.763794 0l0 30.582672l-13.763794 0z" fill-rule="evenodd"/><path stroke="#000000" stroke-width="1.0" stroke-linejoin="round" stroke-linecap="butt" d="m480.23358 134.52231l13.763794 0l0 30.582672l-13.763794 0z" fill-rule="evenodd"/><path fill="#b6d7a8" d="m498.46982 134.52231l13.763763 0l0 30.582672l-13.763763 0z" fill-rule="evenodd"/><path stroke="#000000" stroke-width="1.0" stroke-linejoin="round" stroke-linecap="butt" d="m498.46982 134.52231l13.763763 0l0 30.582672l-13.763763 0z" fill-rule="evenodd"/><path fill="#b6d7a8" d="m516.70605 134.52231l13.763733 0l0 30.582672l-13.763733 0z" fill-rule="evenodd"/><path stroke="#000000" stroke-width="1.0" stroke-linejoin="round" stroke-linecap="butt" d="m516.70605 134.52231l13.763733 0l0 30.582672l-13.763733 0z" fill-rule="evenodd"/><path fill="#b6d7a8" d="m534.94226 134.52231l13.763794 0l0 30.582672l-13.763794 0z" fill-rule="evenodd"/><path stroke="#000000" stroke-width="1.0" stroke-linejoin="round" stroke-linecap="butt" d="m534.94226 134.52231l13.763794 0l0 30.582672l-13.763794 0z" fill-rule="evenodd"/><path fill="#000000" fill-opacity="0.0" d="m464.95013 134.52231l99.370056 0" fill-rule="evenodd"/><path stroke="#000000" stroke-width="1.0" stroke-linejoin="round" stroke-linecap="butt" d="m464.95013 134.52231l99.370056 0" fill-rule="evenodd"/><path fill="#000000" fill-opacity="0.0" d="m464.95013 165.10498l99.370056 0" fill-rule="evenodd"/><path stroke="#000000" stroke-width="1.0" stroke-linejoin="round" stroke-linecap="butt" d="m464.95013 165.10498l99.370056 0" fill-rule="evenodd"/><path fill="#ffd966" d="m584.95013 89.69554l0 0c0 -8.445175 6.5006714 -15.291344 14.519653 -15.291344l0 0c3.850891 0 7.5440063 1.6110458 10.266968 4.4787292c2.7230225 2.8676834 4.2527466 6.7570953 4.2527466 10.812614l0 0c0 8.445168 -6.5006714 15.291336 -14.519714 15.291336l0 0c-8.018982 0 -14.519653 -6.8461685 -14.519653 -15.291336z" fill-rule="evenodd"/><path stroke="#000000" stroke-width="1.0" stroke-linejoin="round" stroke-linecap="butt" d="m584.95013 89.69554l0 0c0 -8.445175 6.5006714 -15.291344 14.519653 -15.291344l0 0c3.850891 0 7.5440063 1.6110458 10.266968 4.4787292c2.7230225 2.8676834 4.2527466 6.7570953 4.2527466 10.812614l0 0c0 8.445168 -6.5006714 15.291336 -14.519714 15.291336l0 0c-8.018982 0 -14.519653 -6.8461685 -14.519653 -15.291336z" fill-rule="evenodd"/><path fill="#ffd966" d="m584.95013 129.77428l0 0c0 -8.445175 6.5006714 -15.291336 14.519653 -15.291336l0 0c3.850891 0 7.5440063 1.6110458 10.266968 4.4787292c2.7230225 2.8676834 4.2527466 6.7570953 4.2527466 10.812607l0 0c0 8.445175 -6.5006714 15.291336 -14.519714 15.291336l0 0c-8.018982 0 -14.519653 -6.846161 -14.519653 -15.291336z" fill-rule="evenodd"/><path stroke="#000000" stroke-width="1.0" stroke-linejoin="round" stroke-linecap="butt" d="m584.95013 129.77428l0 0c0 -8.445175 6.5006714 -15.291336 14.519653 -15.291336l0 0c3.850891 0 7.5440063 1.6110458 10.266968 4.4787292c2.7230225 2.8676834 4.2527466 6.7570953 4.2527466 10.812607l0 0c0 8.445175 -6.5006714 15.291336 -14.519714 15.291336l0 0c-8.018982 0 -14.519653 -6.846161 -14.519653 -15.291336z" fill-rule="evenodd"/><path fill="#ffd966" d="m584.95013 169.85301l0 0c0 -8.44516 6.5006714 -15.291336 14.519653 -15.291336l0 0c3.850891 0 7.5440063 1.6110535 10.266968 4.4787292c2.7230225 2.867691 4.2527466 6.7570953 4.2527466 10.812607l0 0c0 8.445175 -6.5006714 15.291351 -14.519714 15.291351l0 0c-8.018982 0 -14.519653 -6.846176 -14.519653 -15.291351z" fill-rule="evenodd"/><path stroke="#000000" stroke-width="1.0" stroke-linejoin="round" stroke-linecap="butt" d="m584.95013 169.85301l0 0c0 -8.44516 6.5006714 -15.291336 14.519653 -15.291336l0 0c3.850891 0 7.5440063 1.6110535 10.266968 4.4787292c2.7230225 2.867691 4.2527466 6.7570953 4.2527466 10.812607l0 0c0 8.445175 -6.5006714 15.291351 -14.519714 15.291351l0 0c-8.018982 0 -14.519653 -6.846176 -14.519653 -15.291351z" fill-rule="evenodd"/><path fill="#ffd966" d="m584.95013 209.93176l0 0c0 -8.445175 6.5006714 -15.291336 14.519653 -15.291336l0 0c3.850891 0 7.5440063 1.6110382 10.266968 4.4787292c2.7230225 2.8676758 4.2527466 6.75708 4.2527466 10.812607l0 0c0 8.445175 -6.5006714 15.291336 -14.519714 15.291336l0 0c-8.018982 0 -14.519653 -6.846161 -14.519653 -15.291336z" fill-rule="evenodd"/><path stroke="#000000" stroke-width="1.0" stroke-linejoin="round" stroke-linecap="butt" d="m584.95013 209.93176l0 0c0 -8.445175 6.5006714 -15.291336 14.519653 -15.291336l0 0c3.850891 0 7.5440063 1.6110382 10.266968 4.4787292c2.7230225 2.8676758 4.2527466 6.75708 4.2527466 10.812607l0 0c0 8.445175 -6.5006714 15.291336 -14.519714 15.291336l0 0c-8.018982 0 -14.519653 -6.846161 -14.519653 -15.291336z" fill-rule="evenodd"/><path fill="#000000" fill-opacity="0.0" d="m506.99738 232.34908l77.95276 0l0 30.582687l-77.95276 0z" fill-rule="evenodd"/><path fill="#000000" d="m517.388 259.26907l0 -13.359375l2.65625 0l3.15625 9.453125q0.4375 1.328125 0.640625 1.984375q0.234375 -0.734375 0.703125 -2.140625l3.203125 -9.296875l2.375 0l0 13.359375l-1.703125 0l0 -11.171875l-3.875 11.171875l-1.59375 0l-3.859375 -11.375l0 11.375l-1.703125 0zm14.1501465 0.234375l3.875 -13.8125l1.3125 0l-3.859375 13.8125l-1.328125 0zm6.5739746 -0.234375l0 -13.359375l2.65625 0l3.15625 9.453125q0.4375 1.328125 0.640625 1.984375q0.234375 -0.734375 0.703125 -2.140625l3.203125 -9.296875l2.375 0l0 13.359375l-1.703125 0l0 -11.171875l-3.875 11.171875l-1.59375 0l-3.859375 -11.375l0 11.375l-1.703125 0zm14.1501465 0.234375l3.875 -13.8125l1.3125 0l-3.859375 13.8125l-1.328125 0zm6.4176636 -0.234375l0 -9.671875l1.46875 0l0 1.359375q0.453125 -0.71875 1.203125 -1.140625q0.765625 -0.4375 1.71875 -0.4375q1.078125 0 1.765625 0.453125q0.6875 0.4375 0.96875 1.234375q1.15625 -1.6875 2.984375 -1.6875q1.453125 0 2.21875 0.796875q0.78125 0.796875 0.78125 2.453125l0 6.640625l-1.640625 0l0 -6.09375q0 -0.984375 -0.15625 -1.40625q-0.15625 -0.4375 -0.578125 -0.703125q-0.421875 -0.265625 -0.984375 -0.265625q-1.015625 0 -1.6875 0.6875q-0.671875 0.671875 -0.671875 2.15625l0 5.625l-1.640625 0l0 -6.28125q0 -1.09375 -0.40625 -1.640625q-0.40625 -0.546875 -1.3125 -0.546875q-0.6875 0 -1.28125 0.359375q-0.59375 0.359375 -0.859375 1.0625q-0.25 0.703125 -0.25 2.03125l0 5.015625l-1.640625 0z" fill-rule="nonzero"/><path fill="#000000" fill-opacity="0.0" d="m384.06693 149.81364l60.251984 0" fill-rule="evenodd"/><path stroke="#666666" stroke-width="3.0" stroke-linejoin="round" stroke-linecap="butt" d="m384.06693 149.81364l42.251984 0" fill-rule="evenodd"/><path fill="#666666" stroke="#666666" stroke-width="3.0" stroke-linecap="butt" d="m426.3189 154.76884l13.614288 -4.9552l-13.614288 -4.9552z" fill-rule="evenodd"/><path fill="#000000" fill-opacity="0.0" d="m647.6273 149.81364l52.37439 0l0 -134.48021l-642.0437 0l0 209.88179" fill-rule="evenodd"/><path stroke="#666666" stroke-width="3.0" stroke-linejoin="round" stroke-linecap="butt" d="m647.6273 149.81364l52.37439 0l0 -134.48021l-642.0437 0l0 191.88179" fill-rule="evenodd"/><path fill="#666666" stroke="#666666" stroke-width="3.0" stroke-linecap="butt" d="m53.002808 207.21523l4.9551964 13.614288l4.9552 -13.614288z" fill-rule="evenodd"/><path fill="#cfe2f3" d="m169.17061 274.7979l505.98425 0l0 226.2362l-505.98425 0z" fill-rule="evenodd"/><path stroke="#000000" stroke-width="1.0" stroke-linejoin="round" stroke-linecap="butt" d="m169.17061 274.7979l505.98425 0l0 226.2362l-505.98425 0z" fill-rule="evenodd"/><path fill="#cfe2f3" d="m180.75984 359.38086l0 0c0 -7.880005 6.3880005 -14.268005 14.268005 -14.268005l174.77107 0c3.7841187 0 7.4132385 1.5032349 10.08902 4.179016c2.6757507 2.6757507 4.1789856 6.3048706 4.1789856 10.088989l0 57.070312c0 7.8799744 -6.3880005 14.267975 -14.268005 14.267975l-174.77107 0l0 0c-7.880005 0 -14.268005 -6.3880005 -14.268005 -14.267975z" fill-rule="evenodd"/><path stroke="#000000" stroke-width="1.0" stroke-linejoin="round" stroke-linecap="butt" d="m180.75984 359.38086l0 0c0 -7.880005 6.3880005 -14.268005 14.268005 -14.268005l174.77107 0c3.7841187 0 7.4132385 1.5032349 10.08902 4.179016c2.6757507 2.6757507 4.1789856 6.3048706 4.1789856 10.088989l0 57.070312c0 7.8799744 -6.3880005 14.267975 -14.268005 14.267975l-174.77107 0l0 0c-7.880005 0 -14.268005 -6.3880005 -14.268005 -14.267975z" fill-rule="evenodd"/><path fill="#b6d7a8" d="m213.53806 372.62466l13.763779 0l0 30.582672l-13.763779 0z" fill-rule="evenodd"/><path stroke="#000000" stroke-width="1.0" stroke-linejoin="round" stroke-linecap="butt" d="m213.53806 372.62466l13.763779 0l0 30.582672l-13.763779 0z" fill-rule="evenodd"/><path fill="#b6d7a8" d="m231.77428 372.62466l13.763779 0l0 30.582672l-13.763779 0z" fill-rule="evenodd"/><path stroke="#000000" stroke-width="1.0" stroke-linejoin="round" stroke-linecap="butt" d="m231.77428 372.62466l13.763779 0l0 30.582672l-13.763779 0z" fill-rule="evenodd"/><path fill="#b6d7a8" d="m250.0105 372.62466l13.763794 0l0 30.582672l-13.763794 0z" fill-rule="evenodd"/><path stroke="#000000" stroke-width="1.0" stroke-linejoin="round" stroke-linecap="butt" d="m250.0105 372.62466l13.763794 0l0 30.582672l-13.763794 0z" fill-rule="evenodd"/><path fill="#b6d7a8" d="m268.2467 372.62466l13.763794 0l0 30.582672l-13.763794 0z" fill-rule="evenodd"/><path stroke="#000000" stroke-width="1.0" stroke-linejoin="round" stroke-linecap="butt" d="m268.2467 372.62466l13.763794 0l0 30.582672l-13.763794 0z" fill-rule="evenodd"/><path fill="#000000" fill-opacity="0.0" d="m198.2546 372.62466l99.37007 0" fill-rule="evenodd"/><path stroke="#000000" stroke-width="1.0" stroke-linejoin="round" stroke-linecap="butt" d="m198.2546 372.62466l99.37007 0" fill-rule="evenodd"/><path fill="#000000" fill-opacity="0.0" d="m198.2546 403.20734l99.37007 0" fill-rule="evenodd"/><path stroke="#000000" stroke-width="1.0" stroke-linejoin="round" stroke-linecap="butt" d="m198.2546 403.20734l99.37007 0" fill-rule="evenodd"/><path fill="#ffd966" d="m315.1168 387.91602l0 0c0 -13.933228 11.2951355 -25.228363 25.228363 -25.228363l0 0c6.690979 0 13.10788 2.6579895 17.839111 7.389221c4.7312317 4.7312317 7.389221 11.148163 7.389221 17.839142l0 0c0 13.933228 -11.295105 25.228333 -25.228333 25.228333l0 0c-13.933228 0 -25.228363 -11.295105 -25.228363 -25.228333z" fill-rule="evenodd"/><path stroke="#000000" stroke-width="1.0" stroke-linejoin="round" stroke-linecap="butt" d="m315.1168 387.91602l0 0c0 -13.933228 11.2951355 -25.228363 25.228363 -25.228363l0 0c6.690979 0 13.10788 2.6579895 17.839111 7.389221c4.7312317 4.7312317 7.389221 11.148163 7.389221 17.839142l0 0c0 13.933228 -11.295105 25.228333 -25.228333 25.228333l0 0c-13.933228 0 -25.228363 -11.295105 -25.228363 -25.228333z" fill-rule="evenodd"/><path fill="#000000" fill-opacity="0.0" d="m245.61154 422.77167l73.60629 0l0 30.582672l-73.60629 0z" fill-rule="evenodd"/><path fill="#000000" d="m256.00217 449.69165l0 -13.359375l2.65625 0l3.15625 9.453125q0.4375 1.328125 0.640625 1.984375q0.234375 -0.734375 0.703125 -2.140625l3.203125 -9.296875l2.375 0l0 13.359375l-1.703125 0l0 -11.171875l-3.875 11.171875l-1.59375 0l-3.859375 -11.375l0 11.375l-1.703125 0zm14.150177 0.234375l3.875 -13.8125l1.3125 0l-3.859375 13.8125l-1.328125 0zm6.573944 -0.234375l0 -13.359375l2.65625 0l3.15625 9.453125q0.4375 1.328125 0.640625 1.984375q0.234375 -0.734375 0.703125 -2.140625l3.203125 -9.296875l2.375 0l0 13.359375l-1.703125 0l0 -11.171875l-3.875 11.171875l-1.59375 0l-3.859375 -11.375l0 11.375l-1.703125 0zm14.150177 0.234375l3.875 -13.8125l1.3125 0l-3.859375 13.8125l-1.328125 0zm12.136414 -0.234375l-1.640625 0l0 -10.453125q-0.59375 0.5625 -1.5625 1.140625q-0.953125 0.5625 -1.71875 0.84375l0 -1.59375q1.375 -0.640625 2.40625 -1.5625q1.03125 -0.921875 1.453125 -1.78125l1.0625 0l0 13.40625z" fill-rule="nonzero"/><path fill="#cfe2f3" d="m444.32022 324.73553l0 0c0 -17.447327 14.143829 -31.591187 31.591187 -31.591187l140.12473 0c8.378479 0 16.413818 3.3283691 22.338318 9.252838c5.9244995 5.9244995 9.252869 13.959839 9.252869 22.338348l0 126.36093c0 17.447357 -14.14386 31.591187 -31.591187 31.591187l-140.12473 0c-17.447357 0 -31.591187 -14.143829 -31.591187 -31.591187z" fill-rule="evenodd"/><path stroke="#000000" stroke-width="1.0" stroke-linejoin="round" stroke-linecap="butt" d="m444.32022 324.73553l0 0c0 -17.447327 14.143829 -31.591187 31.591187 -31.591187l140.12473 0c8.378479 0 16.413818 3.3283691 22.338318 9.252838c5.9244995 5.9244995 9.252869 13.959839 9.252869 22.338348l0 126.36093c0 17.447357 -14.14386 31.591187 -31.591187 31.591187l-140.12473 0c-17.447357 0 -31.591187 -14.143829 -31.591187 -31.591187z" fill-rule="evenodd"/><path fill="#b6d7a8" d="m480.23358 372.62466l13.763794 0l0 30.582672l-13.763794 0z" fill-rule="evenodd"/><path stroke="#000000" stroke-width="1.0" stroke-linejoin="round" stroke-linecap="butt" d="m480.23358 372.62466l13.763794 0l0 30.582672l-13.763794 0z" fill-rule="evenodd"/><path fill="#b6d7a8" d="m498.46982 372.62466l13.763763 0l0 30.582672l-13.763763 0z" fill-rule="evenodd"/><path stroke="#000000" stroke-width="1.0" stroke-linejoin="round" stroke-linecap="butt" d="m498.46982 372.62466l13.763763 0l0 30.582672l-13.763763 0z" fill-rule="evenodd"/><path fill="#b6d7a8" d="m516.70605 372.62466l13.763733 0l0 30.582672l-13.763733 0z" fill-rule="evenodd"/><path stroke="#000000" stroke-width="1.0" stroke-linejoin="round" stroke-linecap="butt" d="m516.70605 372.62466l13.763733 0l0 30.582672l-13.763733 0z" fill-rule="evenodd"/><path fill="#b6d7a8" d="m534.94226 372.62466l13.763794 0l0 30.582672l-13.763794 0z" fill-rule="evenodd"/><path stroke="#000000" stroke-width="1.0" stroke-linejoin="round" stroke-linecap="butt" d="m534.94226 372.62466l13.763794 0l0 30.582672l-13.763794 0z" fill-rule="evenodd"/><path fill="#000000" fill-opacity="0.0" d="m464.95013 372.62466l99.370056 0" fill-rule="evenodd"/><path stroke="#000000" stroke-width="1.0" stroke-linejoin="round" stroke-linecap="butt" d="m464.95013 372.62466l99.370056 0" fill-rule="evenodd"/><path fill="#000000" fill-opacity="0.0" d="m464.95013 403.20734l99.370056 0" fill-rule="evenodd"/><path stroke="#000000" stroke-width="1.0" stroke-linejoin="round" stroke-linecap="butt" d="m464.95013 403.20734l99.370056 0" fill-rule="evenodd"/><path fill="#ffd966" d="m584.95013 327.7979l0 0c0 -8.44519 6.5006714 -15.291351 14.519653 -15.291351l0 0c3.850891 0 7.5440063 1.6110535 10.266968 4.4787292c2.7230225 2.8676758 4.2527466 6.75708 4.2527466 10.812622l0 0c0 8.44516 -6.5006714 15.291321 -14.519714 15.291321l0 0c-8.018982 0 -14.519653 -6.846161 -14.519653 -15.291321z" fill-rule="evenodd"/><path stroke="#000000" stroke-width="1.0" stroke-linejoin="round" stroke-linecap="butt" d="m584.95013 327.7979l0 0c0 -8.44519 6.5006714 -15.291351 14.519653 -15.291351l0 0c3.850891 0 7.5440063 1.6110535 10.266968 4.4787292c2.7230225 2.8676758 4.2527466 6.75708 4.2527466 10.812622l0 0c0 8.44516 -6.5006714 15.291321 -14.519714 15.291321l0 0c-8.018982 0 -14.519653 -6.846161 -14.519653 -15.291321z" fill-rule="evenodd"/><path fill="#ffd966" d="m584.95013 367.87665l0 0c0 -8.44519 6.5006714 -15.291351 14.519653 -15.291351l0 0c3.850891 0 7.5440063 1.6110535 10.266968 4.4787292c2.7230225 2.8676758 4.2527466 6.7571106 4.2527466 10.812622l0 0c0 8.44516 -6.5006714 15.291321 -14.519714 15.291321l0 0c-8.018982 0 -14.519653 -6.846161 -14.519653 -15.291321z" fill-rule="evenodd"/><path stroke="#000000" stroke-width="1.0" stroke-linejoin="round" stroke-linecap="butt" d="m584.95013 367.87665l0 0c0 -8.44519 6.5006714 -15.291351 14.519653 -15.291351l0 0c3.850891 0 7.5440063 1.6110535 10.266968 4.4787292c2.7230225 2.8676758 4.2527466 6.7571106 4.2527466 10.812622l0 0c0 8.44516 -6.5006714 15.291321 -14.519714 15.291321l0 0c-8.018982 0 -14.519653 -6.846161 -14.519653 -15.291321z" fill-rule="evenodd"/><path fill="#ffd966" d="m584.95013 407.95538l0 0c0 -8.44519 6.5006714 -15.291351 14.519653 -15.291351l0 0c3.850891 0 7.5440063 1.6110535 10.266968 4.4787292c2.7230225 2.8677063 4.2527466 6.7571106 4.2527466 10.812622l0 0c0 8.44516 -6.5006714 15.291321 -14.519714 15.291321l0 0c-8.018982 0 -14.519653 -6.846161 -14.519653 -15.291321z" fill-rule="evenodd"/><path stroke="#000000" stroke-width="1.0" stroke-linejoin="round" stroke-linecap="butt" d="m584.95013 407.95538l0 0c0 -8.44519 6.5006714 -15.291351 14.519653 -15.291351l0 0c3.850891 0 7.5440063 1.6110535 10.266968 4.4787292c2.7230225 2.8677063 4.2527466 6.7571106 4.2527466 10.812622l0 0c0 8.44516 -6.5006714 15.291321 -14.519714 15.291321l0 0c-8.018982 0 -14.519653 -6.846161 -14.519653 -15.291321z" fill-rule="evenodd"/><path fill="#ffd966" d="m584.95013 448.03412l0 0c0 -8.44516 6.5006714 -15.291351 14.519653 -15.291351l0 0c3.850891 0 7.5440063 1.6110535 10.266968 4.4787292c2.7230225 2.8677063 4.2527466 6.7571106 4.2527466 10.812622l0 0c0 8.44519 -6.5006714 15.291351 -14.519714 15.291351l0 0c-8.018982 0 -14.519653 -6.846161 -14.519653 -15.291351z" fill-rule="evenodd"/><path stroke="#000000" stroke-width="1.0" stroke-linejoin="round" stroke-linecap="butt" d="m584.95013 448.03412l0 0c0 -8.44516 6.5006714 -15.291351 14.519653 -15.291351l0 0c3.850891 0 7.5440063 1.6110535 10.266968 4.4787292c2.7230225 2.8677063 4.2527466 6.7571106 4.2527466 10.812622l0 0c0 8.44519 -6.5006714 15.291351 -14.519714 15.291351l0 0c-8.018982 0 -14.519653 -6.846161 -14.519653 -15.291351z" fill-rule="evenodd"/><path fill="#000000" fill-opacity="0.0" d="m506.99738 470.45145l77.95276 0l0 30.582672l-77.95276 0z" fill-rule="evenodd"/><path fill="#000000" d="m517.388 497.37143l0 -13.359375l2.65625 0l3.15625 9.453125q0.4375 1.328125 0.640625 1.984375q0.234375 -0.734375 0.703125 -2.140625l3.203125 -9.296875l2.375 0l0 13.359375l-1.703125 0l0 -11.171875l-3.875 11.171875l-1.59375 0l-3.859375 -11.375l0 11.375l-1.703125 0zm14.1501465 0.234375l3.875 -13.8125l1.3125 0l-3.859375 13.8125l-1.328125 0zm6.5739746 -0.234375l0 -13.359375l2.65625 0l3.15625 9.453125q0.4375 1.328125 0.640625 1.984375q0.234375 -0.734375 0.703125 -2.140625l3.203125 -9.296875l2.375 0l0 13.359375l-1.703125 0l0 -11.171875l-3.875 11.171875l-1.59375 0l-3.859375 -11.375l0 11.375l-1.703125 0zm14.1501465 0.234375l3.875 -13.8125l1.3125 0l-3.859375 13.8125l-1.328125 0zm6.4176636 -0.234375l0 -9.671875l1.46875 0l0 1.359375q0.453125 -0.71875 1.203125 -1.140625q0.765625 -0.4375 1.71875 -0.4375q1.078125 0 1.765625 0.453125q0.6875 0.4375 0.96875 1.234375q1.15625 -1.6875 2.984375 -1.6875q1.453125 0 2.21875 0.796875q0.78125 0.796875 0.78125 2.453125l0 6.640625l-1.640625 0l0 -6.09375q0 -0.984375 -0.15625 -1.40625q-0.15625 -0.4375 -0.578125 -0.703125q-0.421875 -0.265625 -0.984375 -0.265625q-1.015625 0 -1.6875 0.6875q-0.671875 0.671875 -0.671875 2.15625l0 5.625l-1.640625 0l0 -6.28125q0 -1.09375 -0.40625 -1.640625q-0.40625 -0.546875 -1.3125 -0.546875q-0.6875 0 -1.28125 0.359375q-0.59375 0.359375 -0.859375 1.0625q-0.25 0.703125 -0.25 2.03125l0 5.015625l-1.640625 0z" fill-rule="nonzero"/><path fill="#000000" fill-opacity="0.0" d="m384.06693 387.91602l60.251984 0" fill-rule="evenodd"/><path stroke="#666666" stroke-width="3.0" stroke-linejoin="round" stroke-linecap="butt" d="m384.06693 387.91602l42.251984 0" fill-rule="evenodd"/><path fill="#666666" stroke="#666666" stroke-width="3.0" stroke-linecap="butt" d="m426.3189 392.87122l13.614288 -4.9552l-13.614288 -4.9552z" fill-rule="evenodd"/><path fill="#000000" fill-opacity="0.0" d="m647.6273 387.91602l52.37793 0l0 -236.59843" fill-rule="evenodd"/><path stroke="#666666" stroke-width="3.0" stroke-linejoin="round" stroke-linecap="butt" d="m647.6273 387.91602l52.37793 0l0 -236.59843" fill-rule="evenodd"/><path fill="#000000" fill-opacity="0.0" d="m103.80315 268.02515l38.478607 0l0 -118.20473l38.466278 0" fill-rule="evenodd"/><path stroke="#666666" stroke-width="3.0" stroke-linejoin="round" stroke-linecap="butt" d="m103.80315 268.02515l38.478607 0l0 -118.20473l38.466278 0" fill-rule="evenodd"/><path fill="#000000" fill-opacity="0.0" d="m180.75984 387.91602l-38.478592 0l0 -119.90552l-38.466286 0" fill-rule="evenodd"/><path stroke="#666666" stroke-width="3.0" stroke-linejoin="round" stroke-linecap="butt" d="m180.75984 387.91602l-38.478592 0l0 -119.90552l-38.466286 0" fill-rule="evenodd"/><path fill="#000000" fill-opacity="0.0" d="m153.17061 149.81364l11.590546 0" fill-rule="evenodd"/><path stroke="#666666" stroke-width="3.0" stroke-linejoin="round" stroke-linecap="butt" d="m153.17061 149.81364l11.590546 0" fill-rule="evenodd"/><path fill="#666666" stroke="#666666" stroke-width="3.0" stroke-linecap="butt" d="m164.76115 154.76884l13.614288 -4.9552l-13.614288 -4.9552z" fill-rule="evenodd"/><path fill="#000000" fill-opacity="0.0" d="m153.17061 387.91602l11.590546 0" fill-rule="evenodd"/><path stroke="#666666" stroke-width="3.0" stroke-linejoin="round" stroke-linecap="butt" d="m153.17061 387.91602l11.590546 0" fill-rule="evenodd"/><path fill="#666666" stroke="#666666" stroke-width="3.0" stroke-linecap="butt" d="m164.76115 392.87122l13.614288 -4.9552l-13.614288 -4.9552z" fill-rule="evenodd"/><path fill="#000000" fill-opacity="0.0" d="m103.81628 180.9685l60.25196 0l0 37.984253l-60.25196 0z" fill-rule="evenodd"/><path fill="#000000" d="m113.59753 201.29475q0 -2.359375 0.484375 -3.796875q0.484375 -1.453125 1.4375 -2.234375q0.96875 -0.78125 2.421875 -0.78125q1.078125 0 1.890625 0.4375q0.8125 0.421875 1.328125 1.25q0.53125 0.8125 0.828125 1.984375q0.3125 1.15625 0.3125 3.140625q0 2.359375 -0.484375 3.8125q-0.484375 1.4375 -1.453125 2.234375q-0.953125 0.78125 -2.421875 0.78125q-1.921875 0 -3.03125 -1.390625q-1.3125 -1.671875 -1.3125 -5.4375zm1.671875 0q0 3.296875 0.765625 4.390625q0.78125 1.078125 1.90625 1.078125q1.140625 0 1.90625 -1.09375q0.765625 -1.09375 0.765625 -4.375q0 -3.296875 -0.765625 -4.375q-0.765625 -1.078125 -1.921875 -1.078125q-1.125 0 -1.796875 0.953125q-0.859375 1.21875 -0.859375 4.5zm9.610092 6.59375l0 -1.875l1.875 0l0 1.875l-1.875 0zm4.277046 -3.5l1.71875 -0.140625q0.1875 1.25 0.875 1.890625q0.703125 0.625 1.6875 0.625q1.1875 0 2.0 -0.890625q0.828125 -0.890625 0.828125 -2.359375q0 -1.40625 -0.796875 -2.21875q-0.78125 -0.8125 -2.0625 -0.8125q-0.78125 0 -1.421875 0.359375q-0.640625 0.359375 -1.0 0.9375l-1.546875 -0.203125l1.296875 -6.859375l6.640625 0l0 1.5625l-5.328125 0l-0.71875 3.59375q1.203125 -0.84375 2.515625 -0.84375q1.75 0 2.953125 1.21875q1.203125 1.203125 1.203125 3.109375q0 1.8125 -1.046875 3.140625q-1.296875 1.625 -3.515625 1.625q-1.8125 0 -2.96875 -1.015625q-1.15625 -1.03125 -1.3125 -2.71875z" fill-rule="nonzero"/><path fill="#000000" fill-opacity="0.0" d="m103.81628 308.979l60.25196 0l0 37.984253l-60.25196 0z" fill-rule="evenodd"/><path fill="#000000" d="m113.59753 329.30524q0 -2.359375 0.484375 -3.796875q0.484375 -1.453125 1.4375 -2.234375q0.96875 -0.78125 2.421875 -0.78125q1.078125 0 1.890625 0.4375q0.8125 0.421875 1.328125 1.25q0.53125 0.8125 0.828125 1.984375q0.3125 1.15625 0.3125 3.140625q0 2.359375 -0.484375 3.8125q-0.484375 1.4375 -1.453125 2.234375q-0.953125 0.78125 -2.421875 0.78125q-1.921875 0 -3.03125 -1.390625q-1.3125 -1.671875 -1.3125 -5.4375zm1.671875 0q0 3.296875 0.765625 4.390625q0.78125 1.078125 1.90625 1.078125q1.140625 0 1.90625 -1.09375q0.765625 -1.09375 0.765625 -4.375q0 -3.296875 -0.765625 -4.375q-0.765625 -1.078125 -1.921875 -1.078125q-1.125 0 -1.796875 0.953125q-0.859375 1.21875 -0.859375 4.5zm9.610092 6.59375l0 -1.875l1.875 0l0 1.875l-1.875 0zm4.277046 -3.5l1.71875 -0.140625q0.1875 1.25 0.875 1.890625q0.703125 0.625 1.6875 0.625q1.1875 0 2.0 -0.890625q0.828125 -0.890625 0.828125 -2.359375q0 -1.40625 -0.796875 -2.21875q-0.78125 -0.8125 -2.0625 -0.8125q-0.78125 0 -1.421875 0.359375q-0.640625 0.359375 -1.0 0.9375l-1.546875 -0.203125l1.296875 -6.859375l6.640625 0l0 1.5625l-5.328125 0l-0.71875 3.59375q1.203125 -0.84375 2.515625 -0.84375q1.75 0 2.953125 1.21875q1.203125 1.203125 1.203125 3.109375q0 1.8125 -1.046875 3.140625q-1.296875 1.625 -3.515625 1.625q-1.8125 0 -2.96875 -1.015625q-1.15625 -1.03125 -1.3125 -2.71875z" fill-rule="nonzero"/><path fill="#000000" fill-opacity="0.0" d="m385.13647 114.48294l60.251984 0l0 37.984253l-60.251984 0z" fill-rule="evenodd"/><path fill="#000000" d="m401.0896 141.40294l-1.640625 0l0 -10.453125q-0.59375 0.5625 -1.5625 1.140625q-0.953125 0.5625 -1.71875 0.84375l0 -1.59375q1.375 -0.640625 2.40625 -1.5625q1.03125 -0.921875 1.453125 -1.78125l1.0625 0l0 13.40625zm5.1101074 0l0 -1.875l1.875 0l0 1.875l-1.875 0zm4.2770386 -6.59375q0 -2.359375 0.484375 -3.796875q0.484375 -1.453125 1.4375 -2.234375q0.96875 -0.78125 2.421875 -0.78125q1.078125 0 1.890625 0.4375q0.8125 0.421875 1.328125 1.25q0.53125 0.8125 0.828125 1.984375q0.3125 1.15625 0.3125 3.140625q0 2.359375 -0.484375 3.8125q-0.484375 1.4375 -1.453125 2.234375q-0.953125 0.78125 -2.421875 0.78125q-1.921875 0 -3.03125 -1.390625q-1.3125 -1.671875 -1.3125 -5.4375zm1.671875 0q0 3.296875 0.765625 4.390625q0.78125 1.078125 1.90625 1.078125q1.140625 0 1.90625 -1.09375q0.765625 -1.09375 0.765625 -4.375q0 -3.296875 -0.765625 -4.375q-0.765625 -1.078125 -1.921875 -1.078125q-1.125 0 -1.796875 0.953125q-0.859375 1.21875 -0.859375 4.5z" fill-rule="nonzero"/><path fill="#000000" fill-opacity="0.0" d="m384.06824 354.93176l60.251984 0l0 37.984253l-60.251984 0z" fill-rule="evenodd"/><path fill="#000000" d="m400.02136 381.85175l-1.640625 0l0 -10.453125q-0.59375 0.5625 -1.5625 1.140625q-0.953125 0.5625 -1.71875 0.84375l0 -1.59375q1.375 -0.640625 2.40625 -1.5625q1.03125 -0.921875 1.453125 -1.78125l1.0625 0l0 13.40625zm5.1101074 0l0 -1.875l1.875 0l0 1.875l-1.875 0zm4.2770386 -6.59375q0 -2.359375 0.484375 -3.796875q0.484375 -1.453125 1.4375 -2.234375q0.96875 -0.78125 2.421875 -0.78125q1.078125 0 1.890625 0.4375q0.8125 0.421875 1.328125 1.25q0.53125 0.8125 0.828125 1.984375q0.3125 1.15625 0.3125 3.140625q0 2.359375 -0.484375 3.8125q-0.484375 1.4375 -1.453125 2.234375q-0.953125 0.78125 -2.421875 0.78125q-1.921875 0 -3.03125 -1.390625q-1.3125 -1.671875 -1.3125 -5.4375zm1.671875 0q0 3.296875 0.765625 4.390625q0.78125 1.078125 1.90625 1.078125q1.140625 0 1.90625 -1.09375q0.765625 -1.09375 0.765625 -4.375q0 -3.296875 -0.765625 -4.375q-0.765625 -1.078125 -1.921875 -1.078125q-1.125 0 -1.796875 0.953125q-0.859375 1.21875 -0.859375 4.5z" fill-rule="nonzero"/><path fill="#000000" fill-opacity="0.0" d="m639.6273 354.93176l60.251953 0l0 37.984253l-60.251953 0z" fill-rule="evenodd"/><path fill="#000000" d="m655.58044 381.85175l-1.640625 0l0 -10.453125q-0.59375 0.5625 -1.5625 1.140625q-0.953125 0.5625 -1.71875 0.84375l0 -1.59375q1.375 -0.640625 2.40625 -1.5625q1.03125 -0.921875 1.453125 -1.78125l1.0625 0l0 13.40625zm5.1100464 0l0 -1.875l1.875 0l0 1.875l-1.875 0zm4.2770996 -6.59375q0 -2.359375 0.484375 -3.796875q0.484375 -1.453125 1.4375 -2.234375q0.96875 -0.78125 2.421875 -0.78125q1.078125 0 1.890625 0.4375q0.8125 0.421875 1.328125 1.25q0.53125 0.8125 0.828125 1.984375q0.3125 1.15625 0.3125 3.140625q0 2.359375 -0.484375 3.8125q-0.484375 1.4375 -1.453125 2.234375q-0.953125 0.78125 -2.421875 0.78125q-1.921875 0 -3.03125 -1.390625q-1.3125 -1.671875 -1.3125 -5.4375zm1.671875 0q0 3.296875 0.765625 4.390625q0.78125 1.078125 1.90625 1.078125q1.140625 0 1.90625 -1.09375q0.765625 -1.09375 0.765625 -4.375q0 -3.296875 -0.765625 -4.375q-0.765625 -1.078125 -1.921875 -1.078125q-1.125 0 -1.796875 0.953125q-0.859375 1.21875 -0.859375 4.5z" fill-rule="nonzero"/><path fill="#000000" fill-opacity="0.0" d="m637.2021 114.48294l60.251953 0l0 37.984253l-60.251953 0z" fill-rule="evenodd"/><path fill="#000000" d="m653.1552 141.40294l-1.640625 0l0 -10.453125q-0.59375 0.5625 -1.5625 1.140625q-0.953125 0.5625 -1.71875 0.84375l0 -1.59375q1.375 -0.640625 2.40625 -1.5625q1.03125 -0.921875 1.453125 -1.78125l1.0625 0l0 13.40625zm5.1101074 0l0 -1.875l1.875 0l0 1.875l-1.875 0zm4.2770386 -6.59375q0 -2.359375 0.484375 -3.796875q0.484375 -1.453125 1.4375 -2.234375q0.96875 -0.78125 2.421875 -0.78125q1.078125 0 1.890625 0.4375q0.8125 0.421875 1.328125 1.25q0.53125 0.8125 0.828125 1.984375q0.3125 1.15625 0.3125 3.140625q0 2.359375 -0.484375 3.8125q-0.484375 1.4375 -1.453125 2.234375q-0.953125 0.78125 -2.421875 0.78125q-1.921875 0 -3.03125 -1.390625q-1.3125 -1.671875 -1.3125 -5.4375zm1.671875 0q0 3.296875 0.765625 4.390625q0.78125 1.078125 1.90625 1.078125q1.140625 0 1.90625 -1.09375q0.765625 -1.09375 0.765625 -4.375q0 -3.296875 -0.765625 -4.375q-0.765625 -1.078125 -1.921875 -1.078125q-1.125 0 -1.796875 0.953125q-0.859375 1.21875 -0.859375 4.5z" fill-rule="nonzero"/></g></svg>